HIERARCHY
ROOT Hips
{
  OFFSET -0.781851 90.0698 89.5459
  CHANNELS 6 Xposition Yposition Zposition Zrotation Xrotation Yrotation
  JOINT ToSpine
  {
    OFFSET -2.69724 7.43032 -0.144315
    CHANNELS 3 Zrotation Xrotation Yrotation
    JOINT Spine
    {
      OFFSET -0.0310711 10.7595 1.96963
      CHANNELS 3 Zrotation Xrotation Yrotation
      JOINT Spine1
      {
        OFFSET 13.1342 3.43533 0.764692
        CHANNELS 3 Zrotation Xrotation Yrotation
        JOINT Neck
        {
          OFFSET 29.8703 7.82586 -0.130764
          CHANNELS 3 Zrotation Xrotation Yrotation
          JOINT Head
          {
            OFFSET 9.52751 0.295786 -0.907742
            CHANNELS 3 Zrotation Xrotation Yrotation
            End Site
            {
              OFFSET 16.4037 0.713936 2.7358
            }
          }
        }
        JOINT LeftShoulder
        {
          OFFSET 27.5574 4.95586 2.47156
          CHANNELS 3 Zrotation Xrotation Yrotation
          JOINT LeftArm
          {
            OFFSET 1.20734 -0.998971 20.1238
            CHANNELS 3 Zrotation Xrotation Yrotation
            JOINT LeftForeArm
            {
              OFFSET 26.8049 -0.0536703 -0.155908
              CHANNELS 3 Zrotation Xrotation Yrotation
              JOINT LeftHand
              {
                OFFSET 26.6817 0 0.320147
                CHANNELS 3 Zrotation Xrotation Yrotation
                End Site
                {
                  OFFSET 18.6119 0 0.382219
                }
              }
            }
          }
        }
        JOINT RightShoulder
        {
          OFFSET 27.5927 4.71444 -2.65209
          CHANNELS 3 Zrotation Xrotation Yrotation
          JOINT RightArm
          {
            OFFSET 2.83739 -1.17114 -18.7564
            CHANNELS 3 Zrotation Xrotation Yrotation
            JOINT RightForeArm
            {
              OFFSET 28.839 -0.0548439 1.22491
              CHANNELS 3 Zrotation Xrotation Yrotation
              JOINT RightHand
              {
                OFFSET 26.5114 0 -0.101894
                CHANNELS 3 Zrotation Xrotation Yrotation
                End Site
                {
                  OFFSET 18.2168 0 0
                }
              }
            }
          }
        }
      }
    }
  }
  JOINT LeftUpLeg
  {
    OFFSET -4.76168 -1.9167 -10.2353
    CHANNELS 3 Zrotation Xrotation Yrotation
    JOINT LeftLeg
    {
      OFFSET 2.55951 -42.0585 -8.02213
      CHANNELS 3 Zrotation Xrotation Yrotation
      JOINT LeftFoot
      {
        OFFSET 3.16357 -42.5282 -3.95426
        CHANNELS 3 Zrotation Xrotation Yrotation
        JOINT LeftToeBase
        {
          OFFSET 0.346054 -6.02161 12.8035
          CHANNELS 3 Zrotation Xrotation Yrotation
          End Site
          {
            OFFSET 0.134235 -1.35082 5.13018
          }
        }
      }
    }
  }
  JOINT RightUpLeg
  {
    OFFSET -4.94151 -1.41743 10.6446
    CHANNELS 3 Zrotation Xrotation Yrotation
    JOINT RightLeg
    {
      OFFSET -2.56294 -42.0364 -7.94377
      CHANNELS 3 Zrotation Xrotation Yrotation
      JOINT RightFoot
      {
        OFFSET -3.0952 -42.555 -4.02241
        CHANNELS 3 Zrotation Xrotation Yrotation
        JOINT RightToeBase
        {
          OFFSET -0.0828122 -6.13587 12.8035
          CHANNELS 3 Zrotation Xrotation Yrotation
          End Site
          {
            OFFSET -0.131328 -1.35082 5.13018
          }
        }
      }
    }
  }
}
MOTION
Frames:	13
Frame Time:	0.0333333
9.2056 94.8438 217.428 59.599 -60.4503 -21.1106 -70.1915 0 88.8779 88.9191 71.1176 -3.8137 1.60723 23.0484 -6.71125 -135.434 24.3943 154.62 -166.229 67.7177 -167.382 -1.72503 -25.1589 -28.4518 -72.5171 33.4122 -152.349 -57.4436 -20.4785 -76.7027 0.420957 0.000575364 0.35866 -3.24595 18.0865 30.9304 -46.0212 13.4793 146.732 57.7363 -12.2152 82.2043 0.58676 0.000330655 0.0646653 -48.5794 20.0229 94.7824 -3.44798 52.202 -1.44298 -2.2504 -14.2608 -1.22027 5.30671 -12.2007 5.88234 -31.6152 -6.08561 83.9515 4.25433 48.7655 13.396 -12.4496 9.80053 2.0521 2.30799 -30.5935 -13.6393 
9.68551 94.4227 217.091 54.9268 -62.7847 -26.6797 -70.1915 0 88.8779 88.8282 71.4385 -3.47577 0.996558 22.7369 -4.22259 -141.423 25.7431 159.848 -167.577 67.4164 -168.761 -1.07161 -25.7608 -23.0441 -65.9914 15.7735 -169.851 -50.1252 -22.2542 -71.68 0.420957 0.000575364 0.35866 -3.76715 19.0753 32.7966 -44.5669 13.1421 152.244 61.0457 -10.2532 84.1861 0.58676 0.000330655 0.0646653 -48.0314 19.2905 95.5013 -3.6335 54.002 -0.61019 -3.55667 -14.91 -1.29103 5.61149 -12.9934 7.96981 -29.2379 -5.07709 83.6686 3.96651 49.4101 9.86669 -13.1847 9.57056 2.2022 2.67979 -26.9222 -9.19782 
10.3405 94.3625 216.811 50.4589 -64.2902 -32.0249 -70.1915 0 88.8779 88.7455 71.3599 -4.84503 0.358479 21.2204 0.922931 -150.109 26.6277 168.318 -173.446 66.8916 -167.005 0.217049 -24.1763 -15.0364 -64.6462 10.4844 175.415 -14.9825 -7.01568 -64.6355 0.420957 0.000575364 0.35866 -4.15348 18.0258 36.3417 -42.2032 12.3049 152.588 61.4326 -6.66058 86.1906 0.58676 0.000330655 0.0646653 -48.2116 18.039 96.2867 -3.46868 54.1366 0.416626 -4.71112 -15.3405 -1.34832 5.86061 -13.5041 8.76783 -28.2131 -4.06549 84.9264 3.71365 47.7282 9.73769 -12.3478 10.2176 2.03988 2.46093 -24.4453 -10.5595 
11.0781 94.2164 217.053 46.2013 -65.4423 -37.8038 -70.1915 0 88.8779 89.9154 71.1833 -6.84395 -1.06906 19.9848 4.55877 -155.655 26.2481 175.873 -175.988 66.0984 -165.909 0.896979 -21.8506 -9.75757 -66.2335 8.28136 162.98 22.799 7.92553 -71.239 0.420957 0.000575364 0.35866 -4.52081 15.1321 43.5765 -40.0054 9.44512 144.924 63.1573 -2.82067 88.3493 0.58676 0.000330655 0.0646653 -49.2711 16.8872 98.4434 -3.34938 53.6789 0.680772 -5.43012 -14.6374 -1.25841 7.5039 -16.2725 8.57795 -27.9213 -3.66988 88.8475 3.54065 46.2999 9.70202 -14.9742 11.4756 2.68142 2.68317 -27.503 -9.06618 
11.7491 94.4295 217.692 43.4336 -66.1081 -42.1531 -70.1915 0 88.8779 86.173 70.7461 -4.27537 -1.09253 18.3872 7.95932 -157.479 25.0081 -178.102 -175.33 64.8472 -166.251 1.27947 -19.8955 -5.66562 -69.1941 7.38022 154.644 39.928 9.09528 -78.6589 0.420957 0.000575364 0.35866 -3.98761 10.849 50.3672 -41.603 5.32188 134.41 55.218 -3.75169 87.1941 0.58676 0.000330655 0.0646653 -51.1676 15.5779 99.8633 -3.72127 52.8089 -2.79005 -6.62004 -15.6328 -1.40743 8.28258 -17.6454 11.7226 -29.4544 -4.04322 90.5907 3.38061 43.4984 11.8673 -14.7504 10.3734 2.57316 2.63031 -27.1106 -9.39015 
12.6015 94.8616 218.247 41.1339 -66.7128 -45.6561 -70.1915 0 88.8779 80.844 69.1239 0.422679 -0.556433 15.7966 11.1038 -157.26 23.2745 -171.258 -176 62.9894 -164.742 1.52191 -17.2717 -1.01137 -71.5714 8.87627 151.548 45.0629 6.686 -82.7026 0.420957 0.000575364 0.35866 -3.03037 7.50272 53.999 -46.9613 -2.96079 125.136 51.3041 -12.6357 79.8602 0.58676 0.000330655 0.0646653 -53.3997 13.7448 98.9803 -4.13735 52.0986 -6.58739 -5.13067 -17.1616 -1.58352 9.41426 -19.3638 13.5362 -30.9865 -6.19605 89.1563 3.19819 40.4155 12.5445 -13.4548 7.57443 2.18351 2.74924 -22.9158 -3.56561 
13.5192 94.9041 218.753 34.9283 -69.1366 -53.1664 -70.1915 0 88.8779 75.0364 67.1428 6.57147 1.89301 13.6308 13.4142 -158.262 20.737 -163.934 -176.113 60.5601 -164.099 1.32616 -13.5253 1.136 -75.8068 10.8387 154.769 47.0823 5.41954 -84.3133 0.420957 0.000575364 0.35866 -2.48213 6.56061 51.9758 -55.3971 -13.0023 119.8 36.1431 -21.0237 63.7132 0.58676 0.000330655 0.0646653 -56.7937 11.8738 97.8814 -4.52128 53.5303 -7.16185 -4.27516 -18.933 -1.78463 10.7548 -21.2339 16.2081 -32.3124 -5.53984 90.1029 3.0678 38.2553 14.6514 -16.3525 7.66816 2.75821 2.71494 -24.0892 -5.99764 
14.4232 94.4455 218.91 16.7032 -72.2069 -73.8231 -70.1915 0 88.8779 71.5236 66.1383 10.9322 2.95464 12.7835 15.0164 -158.399 17.9843 -158.472 -174.08 57.815 -164.355 0.995829 -9.62452 3.06864 -79.2915 13.6168 163.376 49.3477 5.61902 -84.5326 0.420957 0.000575364 0.35866 -2.7694 7.76378 49.6436 -69.2977 -21.9459 106.828 28.1094 -21.7114 55.2014 0.58676 0.000330655 0.0646653 -60.4738 9.58068 99.6557 -4.63682 57.0845 -3.46475 -4.34789 -20.6001 -1.99115 10.063 -20.1876 17.3229 -31.3821 -3.51768 94.6257 2.85059 37.6326 15.7397 -17.7984 6.8608 2.9732 2.77409 -24.7735 -5.56339 
15.2608 93.7748 218.792 -7.49049 -72.665 -100.507 -70.1915 0 88.8779 70.4714 65.7468 14.2254 4.6257 12.9733 14.7553 -161.162 14.7465 -154.371 -174.32 55.3208 -163.107 0.634532 -6.19871 3.14681 -82.9657 15.3862 175.983 50.3524 7.8646 -82.877 0.420957 0.000575364 0.35866 -3.03806 9.17047 47.0266 -83.3295 -23.1196 89.5021 19.2593 -11.6583 59.8912 0.58676 0.000330655 0.0646653 -64.1315 6.45531 101.613 -4.44586 58.7974 0.238402 -3.02572 -17.2768 -1.54858 8.21581 -17.5605 15.466 -29.9633 -0.458928 100.03 3.08475 37.8401 16.85 -19.0166 7.11278 3.22858 2.75472 -25.7662 -7.105 
15.9345 93.0444 218.58 -22.7293 -71.4956 -117.378 -70.1915 0 88.8779 69.4314 64.305 17.7982 7.11348 12.7214 12.4655 -161.006 12.7165 -154.217 -172.198 53.2615 -164.014 0.699379 -6.74006 2.69693 -85.3477 17.9427 -167.597 51.3319 14.5648 -77.978 0.420957 0.000575364 0.35866 -2.27893 7.84173 43.47 -92.801 -21.4294 79.8586 8.76636 -3.73374 67.1498 0.58676 0.000330655 0.0646653 -66.9806 2.84284 100.273 -3.30995 56.5887 4.50794 -0.627508 -10.7323 -0.934982 5.38776 -12.7286 8.92449 -28.6566 1.84177 103.523 3.41862 39.3019 16.8212 -19.6375 7.28914 3.36287 2.7658 -26.9737 -7.89738 
16.4725 92.4899 218.215 -31.6768 -70.2956 -128.1 -70.1915 0 88.8779 67.6808 62.4026 20.3096 9.56428 11.5977 11.229 -158.209 11.5815 -155.276 -165.613 51.2634 -167.836 1.00394 -9.45247 -1.32378 -89.8983 18.8796 -151.461 45.8447 27.6609 -65.0944 0.420957 0.000575364 0.35866 -1.82032 7.39708 38.9555 -104.16 -20.8966 72.0843 2.55174 -0.584119 77.7001 0.58676 0.000330655 0.0646653 -69.3352 -0.081869 98.8269 -3.13357 52.4884 -0.572307 -1.27696 -7.17591 -0.564562 8.98967 -18.8577 14.3708 -26.7599 2.25054 104.709 3.87488 41.7556 18.5438 -18.5419 8.05451 3.2117 2.71144 -27.5425 -8.92715 
16.6636 91.7623 217.1 -38.468 -69.5813 -136.597 -70.1915 0 88.8779 67.1807 60.9894 19.6416 11.5248 10.4783 10.3934 -157.4 9.92057 -156.965 -161.877 49.1824 -170.654 1.1116 -12.9367 -5.86858 -94.6925 14.7187 -139.813 19.3747 29.5088 -35.5428 0.420957 0.000575364 0.35866 -1.50339 6.67358 37.0733 -114.104 -21.3002 70.4812 -2.12033 0.0676045 88.5527 0.58676 0.000330655 0.0646653 -70.5404 0.0881249 102.292 -3.69306 52.909 -2.40457 -0.320636 -7.77166 -0.678738 10.9572 -22.0853 8.17177 -25.5996 3.16251 106.872 4.1255 43.6877 19.1238 -17.2325 8.63691 2.99319 2.64833 -27.6439 -9.69455 
16.3663 91.4317 215.765 -42.1751 -69.5145 -141.427 -70.1915 0 88.8779 68.0516 60.5237 15.9076 10.9192 9.24532 11.4276 -157.012 8.66924 -160.248 -158.064 47.3462 -175.333 0.947386 -15.482 -10.6187 -101.792 17.9576 -124.998 17.5167 37.6197 -28.3547 0.420957 0.000575364 0.35866 -1.21699 5.53532 36.8825 -122.346 -25.4865 74.9764 -7.35296 -0.966677 97.2194 0.58676 0.000330655 0.0646653 -71.8204 1.50316 105.149 -4.48193 53.0365 -8.37718 -2.30446 -8.70957 -0.657882 12.5525 -24.5723 9.20311 -25.832 4.07999 108.878 4.10421 43.5316 19.1909 -16.6162 9.95632 2.95213 2.55241 -27.6287 -10.698 
